<?xml version="1.0" encoding="iso-8859-1"?>
<!-- Generator: Adobe Illustrator 19.0.0, SVG Export Plug-In . SVG Version: 6.00 Build 0)  -->
<svg version="1.1" id="Layer_1" xmlns="http://www.w3.org/2000/svg" xmlns:xlink="http://www.w3.org/1999/xlink" x="0px" y="0px"
	 viewBox="0 0 512 512" style="enable-background:new 0 0 512 512;" xml:space="preserve">
<path style="fill:#F7CF40;" d="M34.291,128.004C12.493,165.661,0,209.375,0,256.006c0,94.761,51.488,177.476,128.006,221.74
	l162.106-101.622L34.291,128.004z"/>
<path style="fill:#6ECCAE;" d="M127.987,34.292c-38.861,22.451-71.219,54.862-93.696,93.711
	c-0.205,114.012,76.365,218.162,191.808,248.115L307.2,256.006L127.987,34.292z"/>
<path style="fill:#E1F8C9;" d="M256,0c-46.643,0-90.368,12.467-128.026,34.267c0.051,47.924,13.549,95.087,38.97,135.793
	l310.765-42.056C433.459,51.483,350.758,0,256,0z"/>
<path style="fill:#F7CF40;" d="M477.709,128.004c-98.624-57.192-227.104-42.964-310.765,42.056
	c21.466,34.433,51.462,64.251,89.056,85.948l256-0.026C512,209.349,499.494,165.649,477.709,128.004z"/>
<path style="fill:#6ECCAE;" d="M374.976,221.848L256,512c141.389,0,256-114.601,256-255.994
	C470.502,232.083,422.925,220.197,374.976,221.848z"/>
<path style="fill:#E1F8C9;" d="M374.976,221.848c-40.563,1.382-81.382,12.448-118.976,34.158c0,43.419-10.803,84.303-29.888,120.118
	c-22.541,42.356-56.659,77.633-98.106,101.622C165.651,499.533,209.37,512,256,512C354.842,455.192,406.758,336.809,374.976,221.848
	z"/>
<g>
</g>
<g>
</g>
<g>
</g>
<g>
</g>
<g>
</g>
<g>
</g>
<g>
</g>
<g>
</g>
<g>
</g>
<g>
</g>
<g>
</g>
<g>
</g>
<g>
</g>
<g>
</g>
<g>
</g>
</svg>
